<?xml version="1.0" encoding="UTF-8"?>
<svg xmlns="http://www.w3.org/2000/svg" xmlns:xlink="http://www.w3.org/1999/xlink" width="375pt" height="374.999991pt" viewBox="0 0 375 374.999991" version="1.2">
<defs>
<clipPath id="clip1">
  <path d="M 45 49.367188 L 330 49.367188 L 330 325.109375 L 45 325.109375 Z M 45 49.367188 "/>
</clipPath>
</defs>
<g id="surface1">
<path style=" stroke:none;fill-rule:nonzero;fill:rgb(0%,0%,0%);fill-opacity:1;" d="M 147.125 151.242188 C 143.308594 151.320312 140.191406 153.839844 139.4375 157.128906 C 137.898438 154.957031 136.429688 152.875 135.152344 150.878906 C 132.921875 147.402344 131.21875 144.519531 131.222656 141.730469 C 131.222656 140.226562 131.753906 138.5 132.3125 136.667969 C 132.726562 135.320312 133.132812 133.964844 133.414062 132.589844 C 135.050781 124.585938 133.140625 117.234375 131.292969 110.128906 C 129.128906 101.828125 127.265625 94.660156 131.042969 87.3125 C 131.292969 86.828125 131.558594 86.367188 131.839844 85.933594 C 133.277344 83.746094 132.667969 80.8125 130.476562 79.375 C 128.292969 77.941406 125.347656 78.550781 123.914062 80.738281 C 123.453125 81.441406 123.011719 82.1875 122.605469 82.980469 C 117.179688 93.550781 119.804688 103.625 122.113281 112.515625 C 123.761719 118.851562 125.320312 124.839844 124.125 130.6875 C 123.902344 131.773438 123.566406 132.835938 123.242188 133.902344 C 122.539062 136.199219 121.746094 138.804688 121.738281 141.710938 C 121.726562 147.511719 124.871094 152.410156 127.160156 155.988281 C 128.730469 158.441406 130.464844 160.882812 132.304688 163.46875 C 137.957031 171.425781 143.796875 179.652344 144.570312 187.855469 C 144.632812 188.53125 144.660156 189.207031 144.660156 189.882812 C 144.660156 192.5 146.78125 194.621094 149.398438 194.621094 C 152.015625 194.621094 154.140625 192.5 154.140625 189.882812 C 154.140625 188.902344 154.101562 187.921875 154.007812 186.957031 C 153.296875 179.386719 149.640625 172.34375 145.421875 165.835938 C 146.070312 165.976562 146.734375 166.070312 147.425781 166.054688 C 151.839844 165.964844 155.367188 162.59375 155.300781 158.5 C 155.242188 154.410156 151.578125 151.152344 147.125 151.242188 Z M 147.125 151.242188 "/>
<path style=" stroke:none;fill-rule:nonzero;fill:rgb(0%,0%,0%);fill-opacity:1;" d="M 171.53125 176.84375 L 177.871094 176.808594 C 180.488281 176.796875 182.601562 174.667969 182.59375 172.054688 C 182.585938 169.441406 180.464844 167.332031 177.851562 167.332031 C 177.847656 167.332031 177.839844 167.332031 177.835938 167.332031 L 171.46875 167.367188 C 168.851562 167.382812 166.742188 169.519531 166.761719 172.136719 C 166.78125 174.742188 168.898438 176.84375 171.5 176.84375 C 171.511719 176.84375 171.523438 176.84375 171.53125 176.84375 Z M 171.53125 176.84375 "/>
<path style=" stroke:none;fill-rule:nonzero;fill:rgb(0%,0%,0%);fill-opacity:1;" d="M 202.179688 167.367188 C 198.289062 167.339844 194.398438 167.324219 190.5 167.320312 C 190.5 167.320312 190.5 167.320312 190.496094 167.320312 C 187.878906 167.320312 185.757812 169.433594 185.753906 172.050781 C 185.75 174.667969 187.867188 176.789062 190.488281 176.792969 C 194.363281 176.800781 198.238281 176.816406 202.117188 176.84375 C 202.128906 176.84375 202.140625 176.84375 202.148438 176.84375 C 204.753906 176.84375 206.871094 174.742188 206.890625 172.136719 C 206.910156 169.519531 204.800781 167.386719 202.179688 167.367188 Z M 202.179688 167.367188 "/>
<path style=" stroke:none;fill-rule:nonzero;fill:rgb(0%,0%,0%);fill-opacity:1;" d="M 200.0625 185.097656 C 191.234375 185.03125 182.417969 185.03125 173.59375 185.097656 C 170.976562 185.117188 168.871094 187.253906 168.886719 189.871094 C 168.90625 192.472656 171.027344 194.570312 173.628906 194.570312 C 173.640625 194.570312 173.652344 194.570312 173.664062 194.570312 C 182.4375 194.503906 191.214844 194.503906 199.988281 194.570312 C 200 194.570312 200.011719 194.570312 200.023438 194.570312 C 202.625 194.570312 204.746094 192.472656 204.765625 189.871094 C 204.785156 187.253906 202.679688 185.117188 200.0625 185.097656 Z M 200.0625 185.097656 "/>
<path style=" stroke:none;fill-rule:nonzero;fill:rgb(0%,0%,0%);fill-opacity:1;" d="M 182.988281 202.976562 C 182.988281 202.976562 182.980469 202.976562 182.976562 202.976562 C 180.390625 202.984375 177.804688 203 175.214844 203.019531 C 172.597656 203.042969 170.492188 205.179688 170.515625 207.796875 C 170.535156 210.402344 172.652344 212.496094 175.253906 212.496094 C 175.265625 212.496094 175.28125 212.496094 175.292969 212.496094 C 177.867188 212.472656 180.433594 212.457031 183.003906 212.449219 C 185.621094 212.445312 187.738281 210.316406 187.730469 207.699219 C 187.722656 205.085938 185.601562 202.976562 182.988281 202.976562 Z M 182.988281 202.976562 "/>
<path style=" stroke:none;fill-rule:nonzero;fill:rgb(0%,0%,0%);fill-opacity:1;" d="M 198.441406 203.019531 L 195.472656 202.996094 C 195.460938 202.996094 195.445312 202.996094 195.433594 202.996094 C 192.832031 202.996094 190.714844 205.097656 190.695312 207.699219 C 190.671875 210.316406 192.78125 212.453125 195.398438 212.472656 L 198.355469 212.496094 C 198.371094 212.496094 198.382812 212.496094 198.398438 212.496094 C 200.996094 212.496094 203.113281 210.40625 203.136719 207.800781 C 203.164062 205.1875 201.0625 203.046875 198.441406 203.019531 Z M 198.441406 203.019531 "/>
<g clip-path="url(#clip1)" clip-rule="nonzero">
<path style=" stroke:none;fill-rule:nonzero;fill:rgb(0%,0%,0%);fill-opacity:1;" d="M 253.136719 59.523438 C 245.472656 60.074219 238.144531 61.203125 231.324219 62.859375 C 230.835938 62.820312 230.335938 62.835938 229.835938 62.960938 C 229.542969 63.03125 229.246094 63.027344 228.953125 63.050781 C 227.574219 62.898438 226.285156 62.277344 225.511719 61.234375 C 224.871094 60.378906 223.992188 59.816406 223.039062 59.535156 C 220.375 56.511719 217.121094 54.121094 213.269531 52.492188 C 206.207031 49.511719 198.65625 49.6875 193.570312 50.351562 C 189.089844 50.9375 184.542969 50.9375 180.074219 50.351562 C 174.980469 49.683594 167.421875 49.515625 160.378906 52.496094 C 155.820312 54.417969 152.042969 57.359375 149.15625 61.234375 C 148.023438 62.753906 145.828125 63.460938 143.808594 62.960938 C 136.863281 61.242188 129.367188 60.085938 121.53125 59.519531 C 95.738281 57.65625 76.367188 63.210938 62.34375 76.476562 C 50.804688 87.390625 44.539062 102.308594 45.152344 117.402344 C 45.488281 125.835938 48 133.367188 52.414062 139.183594 C 55.570312 143.335938 59.433594 146.746094 63.171875 150.039062 C 66.617188 153.082031 69.875 155.953125 72.4375 159.242188 C 74.304688 161.636719 76.234375 165.976562 78.105469 170.167969 C 80.292969 175.085938 82.558594 180.175781 85.316406 183.574219 C 91.648438 191.386719 99.613281 195.945312 107.3125 200.355469 C 113.566406 203.9375 119.46875 207.320312 124.410156 212.292969 C 125.65625 213.550781 127.476562 216.582031 129.238281 219.515625 C 132.359375 224.714844 135.824219 230.421875 140.109375 233.835938 C 139.6875 235.433594 139.210938 237.023438 138.828125 238.628906 C 136.597656 248.066406 135.574219 257.84375 135.792969 267.6875 C 135.90625 273.214844 136.246094 278.988281 136.8125 284.910156 C 136.988281 286.507812 137.578125 287.988281 138.527344 289.199219 C 140.070312 291.167969 142.332031 292.289062 144.753906 292.289062 C 144.816406 292.289062 144.875 292.289062 144.9375 292.285156 C 147.136719 292.234375 149.21875 291.230469 150.660156 289.515625 C 153.683594 285.898438 155.484375 281.480469 155.863281 276.75 C 156.367188 270.730469 157.140625 264.75 158.121094 259.191406 C 159.382812 253.546875 160.914062 247.976562 162.667969 242.539062 C 166.449219 250.839844 168.117188 260.167969 167.195312 269.292969 C 166.332031 277.894531 164.109375 283.6875 160.203125 287.53125 C 157.316406 290.375 151.722656 292.511719 146.792969 294.398438 C 145.179688 295.011719 143.636719 295.605469 142.246094 296.191406 C 136.964844 298.425781 134.421875 304.367188 136.457031 309.726562 L 139.597656 317.992188 C 141.257812 322.375 145.402344 325.085938 149.84375 325.085938 C 150.984375 325.085938 152.152344 324.90625 153.296875 324.527344 C 160.199219 322.246094 176.664062 315.609375 178.582031 314.535156 C 186.992188 309.832031 192.777344 305.34375 197.453125 296.316406 C 202.242188 287.070312 203.464844 277.15625 204.648438 267.570312 C 205.777344 258.417969 206.84375 249.769531 210.851562 242.191406 L 210.925781 242.050781 C 212.746094 247.636719 214.316406 253.335938 215.582031 258.984375 C 216.601562 264.738281 217.375 270.71875 217.882812 276.738281 C 218.265625 281.480469 220.058594 285.902344 223.09375 289.53125 C 224.527344 291.230469 226.609375 292.234375 228.8125 292.285156 C 228.871094 292.289062 228.933594 292.289062 228.992188 292.289062 C 231.410156 292.289062 233.667969 291.171875 235.238281 289.179688 C 236.179688 287.964844 236.769531 286.480469 236.9375 284.847656 C 237.5 279.003906 237.84375 273.230469 237.953125 267.695312 C 238.167969 257.839844 237.148438 248.0625 234.914062 238.621094 C 234.578125 237.214844 234.15625 235.816406 233.789062 234.414062 C 238.4375 231.101562 242.125 225.019531 245.433594 219.515625 C 247.195312 216.582031 249.015625 213.546875 250.261719 212.292969 C 255.203125 207.316406 261.105469 203.9375 267.359375 200.355469 C 275.058594 195.945312 283.019531 191.382812 289.359375 183.570312 C 292.109375 180.171875 294.375 175.085938 296.566406 170.164062 C 298.433594 165.972656 300.367188 161.636719 302.234375 159.242188 C 304.796875 155.949219 308.050781 153.078125 311.5 150.039062 C 315.238281 146.742188 319.101562 143.332031 322.261719 139.179688 C 326.671875 133.367188 329.183594 125.835938 329.519531 117.402344 C 330.132812 102.304688 323.867188 87.386719 312.328125 76.476562 C 298.300781 63.210938 278.953125 57.664062 253.136719 59.523438 Z M 156.019531 232.683594 C 153.140625 240.546875 150.738281 248.769531 148.828125 257.332031 C 147.753906 263.382812 146.945312 269.652344 146.414062 275.976562 C 146.332031 276.996094 146.132812 278.003906 145.824219 278.976562 C 145.53125 275.0625 145.351562 271.21875 145.277344 267.488281 C 145.074219 258.441406 146.011719 249.464844 148.054688 240.820312 C 149.15625 236.195312 150.492188 231.605469 151.929688 227.058594 L 154.390625 229.78125 C 155.0625 230.527344 155.660156 231.34375 156.285156 232.136719 C 156.191406 232.3125 156.089844 232.488281 156.019531 232.683594 Z M 227.921875 278.992188 C 227.613281 278.019531 227.417969 277.003906 227.332031 275.960938 C 226.800781 269.640625 225.988281 263.371094 224.875 257.125 C 223.019531 248.792969 220.609375 240.570312 217.726562 232.683594 C 217.652344 232.476562 217.546875 232.289062 217.445312 232.101562 C 217.859375 231.601562 218.21875 231.046875 218.648438 230.570312 C 219.699219 229.398438 220.761719 228.230469 221.820312 227.058594 C 223.253906 231.609375 224.589844 236.195312 225.6875 240.8125 C 227.734375 249.460938 228.671875 258.4375 228.472656 267.5 C 228.398438 271.238281 228.210938 275.09375 227.921875 278.992188 Z M 314.707031 133.453125 C 312.121094 136.855469 308.769531 139.8125 305.226562 142.9375 C 301.605469 146.132812 297.859375 149.433594 294.753906 153.421875 C 292.175781 156.730469 290.007812 161.601562 287.90625 166.316406 C 285.960938 170.671875 283.957031 175.183594 281.992188 177.609375 C 276.769531 184.046875 269.90625 187.976562 262.640625 192.140625 C 256.121094 195.875 249.375 199.738281 243.53125 205.621094 C 241.472656 207.6875 239.542969 210.910156 237.300781 214.640625 C 235.4375 217.75 233.125 221.582031 230.875 224.257812 C 230.328125 222.523438 229.777344 220.792969 229.1875 219.082031 C 230.644531 217.058594 231.734375 214.617188 231.511719 211.570312 C 231.21875 207.609375 230.777344 203.628906 230.199219 199.734375 L 229.945312 198.0625 C 229.394531 194.460938 228.867188 191.058594 229.171875 187.84375 C 229.945312 179.65625 235.785156 171.429688 241.433594 163.476562 C 243.273438 160.886719 245.011719 158.441406 246.582031 155.988281 C 248.875 152.410156 252.015625 147.503906 252.003906 141.710938 C 252 138.808594 251.207031 136.203125 250.503906 133.910156 C 250.175781 132.84375 249.84375 131.777344 249.621094 130.691406 C 248.898438 127.160156 249.078125 123.429688 250.222656 118.214844 C 250.785156 115.65625 249.167969 113.132812 246.609375 112.570312 C 244.046875 112.011719 241.523438 113.628906 240.964844 116.183594 C 240 120.5625 239.058594 126.382812 240.332031 132.585938 C 240.613281 133.964844 241.019531 135.324219 241.433594 136.675781 C 241.992188 138.503906 242.519531 140.230469 242.523438 141.726562 C 242.53125 144.515625 240.824219 147.398438 238.59375 150.878906 C 237.304688 152.890625 235.824219 154.996094 234.265625 157.191406 C 233.410156 154.234375 230.546875 152.003906 227.046875 151.933594 C 222.800781 151.84375 219.308594 154.953125 219.246094 158.851562 C 219.183594 162.753906 222.546875 165.96875 226.757812 166.054688 C 227.265625 166.066406 227.765625 166.027344 228.25 165.945312 C 224.0625 172.421875 220.441406 179.429688 219.734375 186.957031 C 219.320312 191.335938 219.957031 195.488281 220.574219 199.5 L 220.824219 201.125 C 221.363281 204.789062 221.78125 208.535156 222.054688 212.261719 C 222.125 213.226562 220.382812 214.910156 218.980469 216.261719 C 218.257812 216.957031 217.558594 217.636719 216.941406 218.320312 C 215.152344 220.289062 213.371094 222.261719 211.59375 224.238281 C 208.253906 227.953125 205.351562 232.175781 202.925781 236.886719 L 202.480469 237.734375 C 197.644531 246.882812 196.421875 256.8125 195.234375 266.410156 C 194.105469 275.570312 193.042969 284.222656 189.03125 291.960938 C 185.410156 298.953125 181.113281 302.261719 174 306.238281 C 172.59375 306.964844 157.390625 313.199219 150.320312 315.53125 C 149.566406 315.78125 148.746094 315.382812 148.460938 314.632812 L 145.320312 306.367188 C 145.105469 305.792969 145.371094 305.15625 145.933594 304.917969 C 147.230469 304.371094 148.671875 303.820312 150.179688 303.246094 C 155.976562 301.03125 162.554688 298.519531 166.859375 294.28125 C 174.171875 287.082031 175.9375 277.109375 176.628906 270.238281 C 178.324219 253.394531 172.644531 235.898438 161.433594 223.441406 L 156.804688 218.320312 C 156.1875 217.636719 155.484375 216.957031 154.765625 216.261719 C 153.363281 214.910156 151.621094 213.230469 151.691406 212.261719 C 151.90625 209.28125 152.21875 206.253906 152.621094 203.261719 C 152.96875 200.667969 151.148438 198.285156 148.554688 197.9375 C 145.964844 197.601562 143.570312 199.410156 143.226562 202.003906 C 142.796875 205.183594 142.464844 208.40625 142.234375 211.570312 C 142.011719 214.617188 143.101562 217.054688 144.558594 219.082031 C 144.0625 220.523438 143.605469 221.984375 143.136719 223.441406 C 141.101562 220.835938 139.050781 217.445312 137.367188 214.640625 C 135.128906 210.910156 133.195312 207.6875 131.136719 205.621094 C 125.292969 199.738281 118.550781 195.875 112.027344 192.140625 C 104.761719 187.976562 97.898438 184.046875 92.683594 177.613281 C 90.714844 175.183594 88.707031 170.671875 86.761719 166.316406 C 84.664062 161.605469 82.496094 156.730469 79.917969 153.421875 C 76.8125 149.433594 73.066406 146.132812 69.445312 142.9375 C 65.898438 139.808594 62.550781 136.855469 59.964844 133.453125 C 55.875 128.070312 54.804688 121.550781 54.628906 117.019531 C 54.121094 104.660156 59.308594 92.390625 68.863281 83.359375 C 81.015625 71.867188 97.527344 67.300781 120.855469 68.972656 C 125.75 69.324219 130.472656 69.945312 135.003906 70.78125 L 134.621094 71.027344 C 132.421875 72.449219 131.792969 75.382812 133.210938 77.578125 C 134.121094 78.980469 135.644531 79.742188 137.195312 79.742188 C 138.078125 79.742188 138.972656 79.496094 139.769531 78.984375 L 140.925781 78.238281 C 143.761719 76.425781 146.664062 74.515625 149.320312 71.957031 C 152.269531 71.09375 154.921875 69.371094 156.765625 66.894531 C 158.628906 64.390625 161.085938 62.484375 164.070312 61.226562 C 169.160156 59.070312 174.917969 59.230469 178.847656 59.75 C 184.144531 60.4375 189.515625 60.4375 194.804688 59.75 C 198.742188 59.234375 204.492188 59.074219 209.582031 61.222656 C 212.570312 62.484375 215.027344 64.390625 216.886719 66.894531 C 218.757812 69.402344 221.464844 71.140625 224.457031 71.988281 C 227.101562 74.53125 229.992188 76.429688 232.816406 78.238281 C 237 80.914062 240.613281 83.226562 242.707031 87.304688 C 245.707031 93.15625 245.054688 98.910156 243.898438 104.257812 C 243.34375 106.816406 244.972656 109.335938 247.53125 109.886719 C 247.867188 109.960938 248.207031 109.996094 248.539062 109.996094 C 250.71875 109.996094 252.6875 108.476562 253.164062 106.257812 C 254.621094 99.53125 255.515625 91.503906 251.140625 82.980469 C 248.109375 77.078125 243.339844 73.746094 238.941406 70.910156 C 243.691406 70.003906 248.664062 69.34375 253.820312 68.972656 C 277.121094 67.300781 293.65625 71.863281 305.8125 83.363281 C 315.363281 92.390625 320.554688 104.660156 320.046875 117.027344 C 319.863281 121.550781 318.792969 128.070312 314.707031 133.453125 Z M 314.707031 133.453125 "/>
</g>
</g>
</svg>
